<?xml version="1.0" encoding="UTF-8" standalone="no"?>
<svg
   xmlns:dc="http://purl.org/dc/elements/1.1/"
   xmlns:cc="http://creativecommons.org/ns#"
   xmlns:rdf="http://www.w3.org/1999/02/22-rdf-syntax-ns#"
   xmlns:svg="http://www.w3.org/2000/svg"
   xmlns="http://www.w3.org/2000/svg"
   xmlns:sodipodi="http://sodipodi.sourceforge.net/DTD/sodipodi-0.dtd"
   xmlns:inkscape="http://www.inkscape.org/namespaces/inkscape"
   version="1.1"
   id="Layer_1"
   x="0px"
   y="0px"
   viewBox="0 0 103.05 122.88"
   style="enable-background:new 0 0 103.05 122.88"
   xml:space="preserve"
   sodipodi:docname="logo.svg"
   inkscape:version="1.0.1 (3bc2e813f5, 2020-09-07)"><metadata
     id="metadata11"><rdf:RDF><cc:Work
         rdf:about=""><dc:format>image/svg+xml</dc:format><dc:type
           rdf:resource="http://purl.org/dc/dcmitype/StillImage" /></cc:Work></rdf:RDF></metadata><defs
     id="defs9" /><sodipodi:namedview
     pagecolor="#ffffff"
     bordercolor="#666666"
     borderopacity="1"
     objecttolerance="10"
     gridtolerance="10"
     guidetolerance="10"
     inkscape:pageopacity="0"
     inkscape:pageshadow="2"
     inkscape:window-width="1920"
     inkscape:window-height="1018"
     id="namedview7"
     showgrid="false"
     inkscape:zoom="6.9173179"
     inkscape:cx="51.525002"
     inkscape:cy="61.439999"
     inkscape:window-x="-6"
     inkscape:window-y="-6"
     inkscape:window-maximized="1"
     inkscape:current-layer="Layer_1" /><g
     id="g4"><path
       d="M28.39,28.72c0.13,0.55-0.22,1.09-0.76,1.21c-0.55,0.12-1.09-0.22-1.21-0.76c-0.23-0.99-0.18-1.88,0.06-2.7 c0.24-0.8,0.66-1.51,1.19-2.16c0.35-0.43,0.99-0.5,1.42-0.15c0.05,0.04,0.1,0.09,0.14,0.14c1.51,1.59,3.25,2.53,4.9,2.78 c0.79,0.12,1.56,0.08,2.27-0.12c0.7-0.2,1.33-0.55,1.88-1.05c0.9-0.85,1.57-2.14,1.84-3.91c0.08-0.55,0.6-0.94,1.15-0.85 c0.21,0.03,0.39,0.12,0.53,0.25c1.44,1.19,2.85,1.81,4.23,1.87c1.39,0.06,2.81-0.44,4.24-1.49c0.44-0.32,1.05-0.23,1.38,0.18l0,0 c1.88,2.34,3.69,3.34,5.44,3.16c1.82-0.19,3.7-1.63,5.64-4.15c0.22-0.29,0.58-0.43,0.92-0.39v0c4.14,0.49,6.63-0.72,7.8-2.49 c0.65-0.99,0.9-2.16,0.8-3.32c-0.1-1.17-0.55-2.3-1.3-3.19c-1.25-1.48-3.36-2.3-6.11-1.46c-0.39,0.12-0.8-0.01-1.06-0.3l0,0 c-1.5-1.71-2.99-2.92-4.42-3.62c-1.14-0.57-2.23-0.81-3.23-0.72c-0.97,0.08-1.87,0.48-2.68,1.19c-0.71,0.62-1.35,1.49-1.9,2.6 c-0.24,0.48-0.8,0.69-1.28,0.49l0,0c-0.77-0.31-1.53-0.51-2.28-0.61c-0.75-0.1-1.5-0.1-2.25,0c-0.48,0.06-0.92-0.21-1.08-0.64l0,0 c-1.04-2.72-2.43-4.01-4.03-4.36c-1.68-0.37-3.72,0.21-5.91,1.22c-0.43,0.2-0.93,0.07-1.21-0.29c-1.67-1.76-3.65-2.72-5.56-2.98 c-1.41-0.19-2.78-0.01-3.96,0.5c-1.16,0.5-2.14,1.32-2.8,2.42c-0.74,1.24-1.08,2.85-0.8,4.78c0.08,0.55-0.31,1.07-0.86,1.15 l-0.03,0v0c-2.88,0.33-4.85,1.92-5.67,3.76c-0.31,0.7-0.46,1.44-0.42,2.15c0.03,0.69,0.24,1.35,0.63,1.94 c0.93,1.4,2.94,2.38,6.2,2.24c0.56-0.02,1.03,0.41,1.05,0.97c0.01,0.27-0.09,0.53-0.26,0.72c-0.66,0.75-1.22,1.52-1.66,2.31 c-0.43,0.77-0.74,1.57-0.92,2.4c-0.11,0.55-0.65,0.9-1.2,0.79c-0.55-0.11-0.9-0.65-0.79-1.2c0.22-1.03,0.6-2.02,1.13-2.97 c0.2-0.36,0.41-0.7,0.65-1.05c-2.9-0.29-4.83-1.5-5.9-3.09c-0.6-0.9-0.92-1.92-0.97-2.97c-0.05-1.02,0.15-2.08,0.6-3.07 c0.99-2.21,3.16-4.14,6.3-4.79c-0.11-1.99,0.33-3.71,1.17-5.11c0.88-1.47,2.19-2.57,3.73-3.24c1.52-0.66,3.26-0.89,5.03-0.65 c2.17,0.3,4.39,1.31,6.3,3.14c2.32-1,4.54-1.51,6.55-1.07c2.11,0.47,3.89,1.93,5.2,4.9c0.67-0.04,1.34-0.01,2,0.08 c0.64,0.09,1.28,0.23,1.91,0.43c0.58-0.98,1.23-1.79,1.96-2.43c1.14-1,2.44-1.56,3.84-1.69c1.37-0.12,2.82,0.19,4.3,0.92 c1.52,0.75,3.08,1.96,4.62,3.64c3.35-0.8,5.99,0.33,7.62,2.27c1.03,1.22,1.64,2.76,1.78,4.33c0.13,1.58-0.22,3.21-1.13,4.6 c-1.49,2.27-4.45,3.86-9.15,3.45c-2.17,2.69-4.39,4.24-6.68,4.48c-2.26,0.24-4.47-0.78-6.63-3.19c-1.56,0.96-3.13,1.42-4.73,1.35 c-1.41-0.06-2.81-0.53-4.19-1.41c-0.45,1.47-1.19,2.64-2.11,3.5c-0.79,0.74-1.71,1.25-2.71,1.53c-0.99,0.28-2.04,0.34-3.12,0.17 c-1.76-0.27-3.57-1.12-5.2-2.56c-0.08,0.17-0.15,0.34-0.2,0.51C28.27,27.54,28.24,28.1,28.39,28.72L28.39,28.72z M0,117.75h93.74 v5.13H0V117.75L0,117.75z M46.86,45l-1.11,10.68h12L56.64,45H46.86L46.86,45z M15.31,31.27l-1.55,14.92h16.76l-1.55-14.92H15.31 L15.31,31.27z M13.47,49.03l-0.76,7.32h18.87l-0.76-7.32H13.47L13.47,49.03z M12.42,59.2l-1.13,10.59l-7.06-1.3v46.7h85.28V84.15 l-29.79-5.47l-1.01-13.69H44.79l-0.68,10.82l-10.68-1.96L31.87,59.2H12.42L12.42,59.2z M45.54,57.72L45,62.96H58.5l-0.54-5.24 H45.54L45.54,57.72z M56.21,90.75h14.25v17.12H56.21V90.75L56.21,90.75z M37.92,90.75h14.25v17.12H37.92V90.75L37.92,90.75z M19.63,90.75h14.25v17.12H19.63V90.75L19.63,90.75z M76.77,19.53c-0.51-0.22-0.75-0.82-0.52-1.33c0.22-0.51,0.82-0.75,1.33-0.52 c0.37,0.16,0.68,0.37,0.99,0.59c0.55-1.32,1.33-2.41,2.24-3.24c1.13-1.02,2.47-1.64,3.87-1.8c1.4-0.16,2.86,0.13,4.22,0.93 c1.21,0.71,2.34,1.82,3.27,3.36c4.32-0.92,7.34,0.35,9.1,2.46c1.25,1.5,1.83,3.42,1.78,5.28c-0.05,1.89-0.75,3.73-2.07,5.07 c-1.72,1.74-4.45,2.62-8.11,1.57c-0.88,1.68-2.18,2.96-3.66,3.76c-0.98,0.54-2.04,0.86-3.09,0.96c-1.08,0.1-2.15-0.04-3.15-0.45 c-1.12-0.45-2.14-1.23-2.94-2.36c-1.59,0.58-3.14,0.95-4.65,1c-1.5,0.05-2.95-0.22-4.33-0.89c-1.66,2.52-3.61,4.04-5.87,4.51 c-2.04,0.42-4.27-0.04-6.7-1.43v5.31c0,0.56-0.45,1.02-1.02,1.02h-7.73c-0.56,0-1.02-0.45-1.02-1.02v-9.34 c-1-0.09-1.98-0.36-2.93-0.78c-1.25-0.56-2.44-1.39-3.59-2.49c-0.41-0.39-0.42-1.03-0.04-1.43c0.39-0.41,1.03-0.42,1.43-0.04 c0.98,0.94,1.99,1.65,3.02,2.11c0.98,0.44,1.98,0.65,3.01,0.64C49.67,31,49.7,31,49.74,31c0.56,0,1.02,0.45,1.02,1.02v9.3h5.7 v-6.16h0c0-0.2,0.06-0.41,0.19-0.59c0.32-0.46,0.96-0.56,1.41-0.24c2.57,1.84,4.81,2.53,6.72,2.13c1.9-0.39,3.57-1.88,5.04-4.4l0,0 l0.02-0.03c0.3-0.47,0.93-0.61,1.4-0.31c1.27,0.81,2.64,1.12,4.08,1.08c1.49-0.05,3.07-0.47,4.7-1.14 c0.48-0.22,1.06-0.04,1.32,0.43c0.61,1.11,1.45,1.83,2.39,2.21c0.7,0.28,1.45,0.38,2.21,0.31c0.78-0.07,1.57-0.32,2.31-0.72 c1.32-0.72,2.46-1.94,3.13-3.57c0.19-0.52,0.76-0.79,1.29-0.61c3.24,1.15,5.53,0.56,6.87-0.8c0.95-0.96,1.45-2.31,1.49-3.7 c0.04-1.41-0.39-2.84-1.31-3.94c-1.39-1.67-3.95-2.61-7.76-1.63c-0.46,0.14-0.96-0.06-1.19-0.5c-0.82-1.56-1.82-2.62-2.89-3.25 c-0.96-0.57-1.99-0.78-2.97-0.66c-0.98,0.11-1.93,0.56-2.74,1.28c-0.92,0.83-1.66,2.03-2.08,3.55l0,0 c-0.01,0.05-0.03,0.09-0.05,0.14c-0.23,0.51-0.82,0.74-1.33,0.52c-0.44-0.19-0.79-0.45-1.14-0.7 C77.28,19.83,77.01,19.64,76.77,19.53L76.77,19.53z"
       id="path2" /></g><path
     style="fill:#ffffff;stroke-width:0.144565"
     d="m 13.878869,45.718587 c 0.03689,-0.258409 0.356558,-3.299689 0.710367,-6.7584 0.353809,-3.45871 0.683437,-6.597571 0.732506,-6.975247 l 0.08921,-0.686682 h 6.747303 6.747302 l 0.696833,6.7584 c 0.383257,3.71712 0.73214,7.067407 0.775297,7.445082 l 0.07846,0.686682 h -8.322182 -8.322182 z"
     id="path13" /><path
     style="fill:#ffffff;stroke-width:0.144565"
     d="m 12.8456,55.693552 c 0.113094,-0.850971 0.658885,-6.161206 0.658885,-6.410582 0,-0.17235 1.307399,-0.203253 8.598845,-0.203253 h 8.598846 l 0.06708,0.32527 c 0.09532,0.462207 0.661252,6.031371 0.661252,6.507194 v 0.395771 h -9.333281 -9.333282 z"
     id="path15" /><path
     style="fill:#ffffff;stroke-width:0.144565"
     d="m 4.2523438,91.870869 c 0,-12.801205 0.04879,-23.274178 0.1084235,-23.273275 0.059633,8.96e-4 1.6371952,0.287176 3.505694,0.636161 1.8684988,0.348985 3.4188687,0.61397 3.4452657,0.588856 0.03778,-0.03595 1.162871,-10.085503 1.17719,-10.514942 0.002,-0.05963 4.347818,-0.108423 9.6574,-0.108423 h 9.653785 l 0.773266,7.336658 c 0.425297,4.035163 0.781253,7.346821 0.791015,7.359239 0.06994,0.08897 10.667184,1.953303 10.732384,1.888101 0.04568,-0.04568 0.237632,-2.445889 0.426567,-5.333806 0.188936,-2.887916 0.345358,-5.267021 0.347604,-5.286898 0.0022,-0.01988 3.09121,-0.03614 6.86436,-0.03614 h 6.860272 l 0.07384,0.469835 c 0.04061,0.258409 0.276718,3.299689 0.524683,6.7584 0.247966,3.45871 0.477756,6.315524 0.510647,6.348475 0.04197,0.04204 29.300984,5.470211 29.660074,5.502573 0.01988,0.0018 0.03614,6.964048 0.03614,15.47168 V 115.14579 H 46.826649 4.2523438 Z m 29.6357642,7.445082 v -8.6016 h -7.155953 -7.155953 v 8.6016 8.601599 h 7.155953 7.155953 z m 18.359717,0 v -8.6016 H 45.01959 37.791355 v 8.6016 8.601599 h 7.228235 7.228235 z m 18.215153,0 v -8.6016 h -7.155953 -7.155953 v 8.6016 8.601599 h 7.155953 7.155953 z"
     id="path17" /><path
     style="fill:#ffffff;stroke-width:0.144565"
     d="m 26.803157,29.591514 c -0.261465,-0.211721 -0.336171,-0.452985 -0.395042,-1.275777 -0.09185,-1.283773 0.194312,-2.31639 0.937265,-3.38208 0.450287,-0.645892 0.637961,-0.799729 1.02101,-0.836927 0.401749,-0.03901 0.608228,0.08171 1.434191,0.838559 2.297489,2.105231 5.227959,2.81889 7.367713,1.794263 1.477398,-0.707454 2.318385,-1.948787 3.005435,-4.43614 0.172464,-0.62438 0.321521,-0.878103 0.586895,-0.999017 0.418641,-0.190746 0.625005,-0.10498 1.801366,0.74865 1.656415,1.201983 3.550827,1.573432 5.294984,1.03822 0.546469,-0.167689 1.416432,-0.566742 1.933251,-0.886784 0.516819,-0.320043 1.023856,-0.581932 1.12675,-0.581977 0.102893,-4.5e-5 0.762988,0.578026 1.466877,1.284602 1.701833,1.708328 2.766394,2.258816 4.357748,2.253407 0.966596,-0.0033 1.222848,-0.06517 2.087912,-0.504258 0.939689,-0.476961 2.539798,-1.890763 3.801757,-3.359103 0.256256,-0.298164 0.545661,-0.549409 0.64312,-0.55832 0.09746,-0.0089 0.860269,-0.0039 1.69513,0.01103 3.51078,0.063 5.871573,-1.061018 6.913012,-3.291414 0.522225,-1.118425 0.541905,-3.131506 0.04302,-4.401006 C 71.495422,11.952897 70.3899,10.752894 69.333938,10.234342 68.598704,9.8732898 68.357836,9.8305952 67.065705,9.832289 66.270599,9.833329 65.310163,9.891086 64.931402,9.9606328 L 64.242747,10.087082 62.835216,8.7273409 C 61.285884,7.2306212 60.147987,6.4170833 58.826729,5.8614857 58.10461,5.5578303 57.726529,5.4960682 56.584766,5.4952462 55.423041,5.4944078 55.111152,5.5466017 54.56086,5.8339274 53.633105,6.31834 52.456996,7.5118037 51.857454,8.577225 51.180679,9.7798957 50.966126,9.8682004 49.704556,9.4633082 48.992128,9.2346592 48.208893,9.1226704 46.971213,9.0724888 46.017086,9.0338039 45.157989,8.9389712 45.062108,8.8617495 44.966227,8.7845279 44.628042,8.184732 44.310587,7.5288699 42.535957,3.8624903 40.004888,3.1368107 35.409562,4.9768686 c -0.610283,0.2443693 -1.16759,0.4443077 -1.23846,0.4443077 -0.07087,0 -0.593622,-0.4185949 -1.16167,-0.9302109 C 31.770421,3.3750443 30.393703,2.6226175 28.884799,2.2367049 25.045192,1.2546992 21.430424,3.0739677 20.501443,6.455945 c -0.12489,0.4546676 -0.211949,1.4038622 -0.21168,2.3079395 5.5e-4,1.8369835 -0.06062,1.9261185 -1.530846,2.2309295 -2.152482,0.446256 -4.131149,1.865122 -4.917681,3.526379 -0.496455,1.048576 -0.608862,2.440241 -0.277648,3.437434 0.637417,1.919083 2.457245,2.929998 5.683006,3.15691 2.128055,0.149695 2.425514,0.629173 1.289214,2.0781 -0.98367,1.254306 -1.484783,2.153012 -1.899313,3.406268 -0.210393,0.636085 -0.487787,1.237836 -0.616431,1.337224 -0.353164,0.272847 -0.968324,0.217051 -1.268911,-0.115095 -0.240929,-0.266224 -0.250719,-0.378252 -0.09791,-1.120377 0.09338,-0.453517 0.480245,-1.442589 0.85969,-2.19794 0.379446,-0.75535 0.706612,-1.407233 0.727036,-1.448628 0.02042,-0.04139 -0.478296,-0.181843 -1.108268,-0.312108 -2.378428,-0.491805 -4.258542,-1.82687 -5.15484,-3.66044 -0.391227,-0.800339 -0.424003,-0.991155 -0.424003,-2.468499 0,-1.595214 0.0023,-1.605722 0.620392,-2.853113 1.05174,-2.1225 2.939349,-3.688292 5.251095,-4.355839 l 0.811722,-0.2343955 0.1,-1.1157945 c 0.136146,-1.5191221 0.323285,-2.2398795 0.890272,-3.4288295 0.625858,-1.312401 1.412742,-2.2050836 2.706517,-3.0704131 1.562178,-1.044848 2.8231,-1.40794766 4.871579,-1.40283739 2.565269,0.006399 4.437386,0.65976744 6.641476,2.31787089 l 1.066058,0.8019794 1.584873,-0.5264777 c 3.394872,-1.1277389 5.856708,-0.7767493 7.863408,1.1211042 0.739646,0.699527 1.788184,2.1826165 2.073318,2.9325763 0.124691,0.3279617 0.20954,0.3560797 1.074522,0.3560797 0.516526,0 1.440931,0.1102605 2.054232,0.2450233 0.825859,0.1814687 1.129744,0.2010718 1.171576,0.075576 0.123613,-0.370837 1.385204,-1.8627873 2.027564,-2.397785 0.374808,-0.3121621 1.093009,-0.7615973 1.596005,-0.9987449 1.179862,-0.5562696 2.950798,-0.6947259 4.337683,-0.3391308 1.821474,0.467023 4.036576,1.8269712 5.646497,3.4666339 l 0.77919,0.7935839 1.533846,-0.080907 c 2.508599,-0.1323232 3.972896,0.3545214 5.575574,1.8537471 1.928784,1.8042837 2.827213,4.7669977 2.181383,7.1934707 -0.672385,2.526251 -2.292845,4.192612 -4.987926,5.129215 -1.060725,0.368627 -1.507901,0.438948 -3.166016,0.497878 l -1.930831,0.06862 -1.16678,1.215345 c -2.121883,2.210202 -3.903364,3.140068 -6.030758,3.147829 -1.921819,0.007 -3.356613,-0.640788 -5.236598,-2.36428 l -0.827372,-0.758502 -0.907404,0.441536 c -2.401019,1.168315 -4.643199,1.15456 -7.021385,-0.04308 l -0.980905,-0.493975 -0.495505,1.101125 c -0.654774,1.455051 -1.94868,2.845439 -3.239246,3.480782 -2.531237,1.246124 -5.585046,0.800533 -8.430817,-1.230167 -0.707596,-0.50493 -0.971951,-0.624363 -1.099637,-0.496805 -0.09772,0.09763 -0.176587,0.682419 -0.188379,1.396904 -0.0157,0.951276 -0.07793,1.292671 -0.275394,1.510869 -0.319056,0.352552 -0.803657,0.360788 -1.223532,0.02079 z"
     id="path19" /><path
     style="fill:#ffffff;stroke-width:0.144565"
     d="m 49.139371,42.948545 -0.361099,-0.361098 v -4.83068 -4.83068 l -0.903529,-0.175546 c -1.748057,-0.339629 -3.769364,-1.412781 -5.274936,-2.800568 -0.746439,-0.688045 -0.819543,-1.217412 -0.231949,-1.679614 0.471526,-0.370902 0.792072,-0.291101 1.545081,0.384658 1.506247,1.35172 3.183905,2.1329 5.022324,2.338583 1.852964,0.207308 1.72235,-0.212162 1.72235,5.531394 v 4.892793 h 2.963577 2.963576 v -3.324988 c 0,-3.132236 0.01676,-3.341749 0.28913,-3.614117 0.408502,-0.408503 0.656699,-0.366119 1.652415,0.282171 4.580821,2.982478 8.006941,2.379286 10.908408,-1.920502 0.403486,-0.597939 0.855381,-1.125812 1.00421,-1.173048 0.161123,-0.05114 0.719208,0.127159 1.379458,0.44071 2.113525,1.003708 4.263413,1.000983 7.2307,-0.0092 0.80476,-0.273963 1.53924,-0.44483 1.679605,-0.390739 0.137198,0.05287 0.567477,0.518406 0.956178,1.034526 0.559278,0.742612 0.903466,1.038559 1.649663,1.418448 0.839107,0.427188 1.071308,0.479762 2.108839,0.477482 2.480469,-0.0055 4.453087,-1.297189 5.750062,-3.765336 0.289954,-0.551782 0.648059,-1.041603 0.79579,-1.088491 0.147731,-0.04689 0.747989,0.04225 1.333907,0.198082 1.573648,0.418535 2.463196,0.49442 3.582551,0.305616 1.271721,-0.214504 2.354992,-0.851209 3.078102,-1.80919 0.679806,-0.900621 0.977146,-1.735281 1.081496,-3.035859 0.2434,-3.034036 -1.705978,-5.571412 -4.719387,-6.142893 -1.07107,-0.203125 -1.867265,-0.182678 -3.50389,0.08998 -1.651781,0.275182 -1.601523,0.29659 -2.44718,-1.042412 -0.734681,-1.163284 -1.949108,-2.295338 -2.981252,-2.779037 -0.687871,-0.322359 -1.031666,-0.389414 -1.988825,-0.387903 -0.983777,0.0016 -1.286806,0.06524 -2.022061,0.424965 -1.517232,0.742312 -2.46973,1.925721 -3.268674,4.061091 -0.508764,1.359795 -0.919685,1.374098 -2.80421,0.09761 -1.135122,-0.768876 -1.341482,-1.220106 -0.803864,-1.757726 0.383373,-0.383372 0.768154,-0.376316 1.493451,0.02738 0.348386,0.193912 0.605471,0.263846 0.636595,0.173171 0.02871,-0.08365 0.295029,-0.565063 0.591811,-1.069795 1.573784,-2.676499 4.526626,-4.244596 7.129515,-3.786106 1.932139,0.340339 4.035984,1.749216 5.208298,3.487828 l 0.489794,0.726396 0.795105,-0.109087 c 2.593546,-0.355831 4.960261,0.03639 6.583698,1.091078 3.871046,2.51488 4.685676,8.082719 1.677996,11.468873 -1.506859,1.696474 -4.120106,2.573504 -6.454635,2.166232 -2.062841,-0.359874 -1.79137,-0.436557 -2.602164,0.735043 -2.474036,3.574988 -7.087749,4.683122 -10.306391,2.475415 -0.420816,-0.288642 -0.976201,-0.778918 -1.234186,-1.089499 L 80.065757,33.7393 78.770061,34.118036 c -2.689429,0.786131 -4.711784,0.804001 -6.859856,0.06062 -0.488431,-0.169031 -0.908601,-0.284519 -0.93371,-0.256638 -0.02511,0.02788 -0.432023,0.538597 -0.904253,1.134926 -2.3149,2.923249 -5.480654,4.055793 -8.680659,3.105495 -0.592141,-0.175848 -1.987195,-0.768012 -2.810542,-1.193002 -0.05495,-0.02836 -0.120006,1.251481 -0.144564,2.844101 -0.03931,2.549344 -0.0755,2.926509 -0.30259,3.153493 -0.233527,0.233419 -0.654258,0.261832 -4.445678,0.300218 l -4.18774,0.0424 z"
     id="path21" /><path
     style="fill:#ffffff;stroke-width:0.144565"
     d="m 45.886978,55.308342 c 0,-0.152233 0.22769,-2.443928 0.505977,-5.092656 0.278287,-2.648727 0.505976,-4.898649 0.505976,-4.999825 0,-0.145238 1.019321,-0.183956 4.842918,-0.183956 2.663604,0 4.843504,0.04879 4.844221,0.108423 7.23e-4,0.05963 0.228406,2.280432 0.505976,4.935109 0.27757,2.654677 0.504673,4.980362 0.504673,5.168188 v 0.341503 h -5.85487 c -5.671463,0 -5.854871,-0.0087 -5.854871,-0.276786 z"
     id="path23" /><path
     style="fill:#ffffff;stroke-width:0.144565"
     d="m 45.33024,60.536469 c 0.141577,-1.331802 0.259707,-2.502776 0.262511,-2.602164 0.004,-0.141643 1.32971,-0.180706 6.132683,-0.180706 h 6.127586 l 0.08539,0.6144 c 0.04696,0.33792 0.153324,1.329995 0.23636,2.204611 0.08304,0.874617 0.180481,1.769111 0.216544,1.987765 l 0.06557,0.397553 h -6.692027 -6.692026 z"
     id="path25" /><path
     style="fill:#ffffff;stroke-width:0.144565"
     d="m 0.05996738,120.27783 v -2.52988 H 46.898931 93.737895 v 2.52988 2.52988 H 46.898931 0.05996738 Z"
     id="path27" /></svg>
