<?xml version="1.0" encoding="UTF-8" standalone="no"?>
<!DOCTYPE svg PUBLIC "-//W3C//DTD SVG 20010904//EN" "http://www.w3.org/TR/2001/REC-SVG-20010904/DTD/svg10.dtd">
<svg viewBox="0 0 500 500" xmlns="http://www.w3.org/2000/svg">
<path d="m89.69018,40.06386 336.9598,2.3983c20.813.1481 56.056,5.474 63.554,34.7749 8.661,38.5328 11.547,211.9478-2.399,238.6308-10.281,21.521-19.828,28.698-29.977,34.774-30.065,14.443-170.28,11.991-170.28,11.991l-178.6717,100.729 115.1177-101.928-145.0962.001c-20.3601,0-38.9787-12.804-45.5673-40.772-11.47156-50.783-13.70463-193.213-2.3984-226.6378 10.7142-30.5384 28.7208-54.175 58.7581-53.9612z" fill-opacity=".5" fill-rule="evenodd"/>
<path d="m76.7452,28.737 336.9598,2.3983c20.813.1481 56.056,5.474 63.554,34.7749 8.661,38.5328 11.547,211.9478-2.399,238.6308-10.281,21.521-19.828,28.698-29.977,34.774-30.065,14.443-170.28,11.991-170.28,11.991l-178.6717,100.729 115.1177-101.928-145.0962.001c-20.3601,0-38.9787-12.804-45.5673-40.772-11.47156-50.783-13.70463-193.213-2.3984-226.6378 10.7142-30.5384 28.7208-54.175 58.7581-53.9612z" fill="#fff" fill-rule="evenodd" stroke="#000" stroke-linejoin="round" stroke-width="10"/>
</svg>
