<?xml version="1.0" encoding="UTF-8" standalone="no"?>
<svg
   xmlns:dc="http://purl.org/dc/elements/1.1/"
   xmlns:cc="http://creativecommons.org/ns#"
   xmlns:rdf="http://www.w3.org/1999/02/22-rdf-syntax-ns#"
   xmlns:svg="http://www.w3.org/2000/svg"
   xmlns="http://www.w3.org/2000/svg"
   xmlns:sodipodi="http://sodipodi.sourceforge.net/DTD/sodipodi-0.dtd"
   xmlns:inkscape="http://www.inkscape.org/namespaces/inkscape"
   fill="#000000"
   viewBox="0 0 50 50"
   width="50px"
   height="50px"
   version="1.1"
   id="svg4"
   sodipodi:docname="info.svg"
   inkscape:version="1.0.1 (3bc2e813f5, 2020-09-07)">
  <metadata
     id="metadata10">
    <rdf:RDF>
      <cc:Work
         rdf:about="">
        <dc:format>image/svg+xml</dc:format>
        <dc:type
           rdf:resource="http://purl.org/dc/dcmitype/StillImage" />
      </cc:Work>
    </rdf:RDF>
  </metadata>
  <defs
     id="defs8" />
  <sodipodi:namedview
     pagecolor="#ffffff"
     bordercolor="#666666"
     borderopacity="1"
     objecttolerance="10"
     gridtolerance="10"
     guidetolerance="10"
     inkscape:pageopacity="0"
     inkscape:pageshadow="2"
     inkscape:window-width="1920"
     inkscape:window-height="1018"
     id="namedview6"
     showgrid="false"
     inkscape:zoom="17"
     inkscape:cx="25"
     inkscape:cy="25"
     inkscape:window-x="-6"
     inkscape:window-y="-6"
     inkscape:window-maximized="1"
     inkscape:current-layer="svg4" />
  <path
     d="M 25 2 C 12.264481 2 2 12.264481 2 25 C 2 37.735519 12.264481 48 25 48 C 37.735519 48 48 37.735519 48 25 C 48 12.264481 37.735519 2 25 2 z M 25 4 C 36.664481 4 46 13.335519 46 25 C 46 36.664481 36.664481 46 25 46 C 13.335519 46 4 36.664481 4 25 C 4 13.335519 13.335519 4 25 4 z M 25 11 A 3 3 0 0 0 25 17 A 3 3 0 0 0 25 11 z M 21 21 L 21 23 L 23 23 L 23 36 L 21 36 L 21 38 L 29 38 L 29 36 L 27 36 L 27 21 L 21 21 z"
     id="path2" />
  <path
     style="fill:#02122c;stroke-width:0.0588235"
     d="M 23.558824,47.933955 C 20.514601,47.690336 17.952906,47.040719 15.353411,45.853156 10.856082,43.798578 6.9621854,40.092222 4.6522085,35.667354 3.2842333,33.046932 2.4642067,30.304766 2.1479333,27.293066 2.0276529,26.147701 2.0273109,23.859811 2.1472469,22.700275 2.6183975,18.145216 4.3497662,13.966014 7.225973,10.441176 7.8590976,9.6652718 9.1930118,8.2983929 9.9946876,7.6040381 14.940855,3.3200201 21.490851,1.3784644 28.096641,2.2382402 c 2.727935,0.3550539 5.626345,1.3163597 8.050418,2.6700541 2.031933,1.1347086 3.647459,2.3779346 5.325133,4.0979475 5.201972,5.3332532 7.445138,12.7492942 6.109883,20.1996402 -0.571649,3.189638 -1.989437,6.51891 -3.913494,9.189729 -1.292355,1.793941 -3.072456,3.617424 -4.818643,4.936073 -3.280303,2.477152 -7.090204,3.997432 -11.261703,4.493803 -0.756927,0.09007 -3.377757,0.160618 -4.029411,0.108468 z m 3.032359,-1.967001 c 6.031534,-0.47615 11.35724,-3.31602 15.008126,-8.002906 2.308352,-2.963387 3.71484,-6.33757 4.263733,-10.228754 0.150199,-1.064781 0.150749,-4.41739 9e-4,-5.470588 C 45.176463,17.43291 43.133074,13.30356 39.799362,10.009202 36.406769,6.6566582 32.144755,4.6491385 27.205882,4.0773448 26.366774,3.9801976 23.637416,3.9798722 22.794118,4.0768186 17.024668,4.7400808 12.124845,7.4074959 8.5598753,11.825799 6.2211838,14.724294 4.690328,18.322524 4.1437005,22.205882 c -0.1295976,0.92069 -0.1807723,3.688736 -0.087259,4.719863 0.7214486,7.955092 5.7972258,14.738072 13.2082645,17.650775 2.031989,0.798616 3.905389,1.211797 6.411765,1.414121 0.57584,0.04648 2.192231,0.03335 2.914712,-0.02369 z"
     id="path835" />
  <path
     style="fill:#02122c;stroke-width:0.0588235"
     d="m 21,37 v -0.970588 h 1 1 V 29.5 22.970588 H 22 21 V 22 21.029412 h 3 3 v 7.5 7.5 h 1 1 V 37 37.970588 h -4 -4 z"
     id="path837" />
  <path
     style="fill:#02122c;stroke-width:0.0588235"
     d="m 24.294118,16.876902 c -1.335335,-0.354725 -2.235294,-1.511201 -2.235294,-2.872422 0,-0.849744 0.268206,-1.491748 0.875907,-2.096649 1.118817,-1.113664 2.853267,-1.168008 4.013641,-0.125756 0.862308,0.774528 1.210582,2.000453 0.876026,3.083619 -0.459543,1.487827 -2.062598,2.401091 -3.53028,2.011208 z"
     id="path839" />
</svg>
