<?xml version="1.0" encoding="UTF-8" standalone="no"?>
<svg
   xmlns:dc="http://purl.org/dc/elements/1.1/"
   xmlns:cc="http://creativecommons.org/ns#"
   xmlns:rdf="http://www.w3.org/1999/02/22-rdf-syntax-ns#"
   xmlns:svg="http://www.w3.org/2000/svg"
   xmlns="http://www.w3.org/2000/svg"
   xmlns:sodipodi="http://sodipodi.sourceforge.net/DTD/sodipodi-0.dtd"
   xmlns:inkscape="http://www.inkscape.org/namespaces/inkscape"
   id="Layer_1"
   data-name="Layer 1"
   viewBox="0 0 122.88 99.7"
   version="1.1"
   sodipodi:docname="cloud2.svg"
   inkscape:version="1.0.1 (3bc2e813f5, 2020-09-07)">
  <metadata
     id="metadata11">
    <rdf:RDF>
      <cc:Work
         rdf:about="">
        <dc:format>image/svg+xml</dc:format>
        <dc:type
           rdf:resource="http://purl.org/dc/dcmitype/StillImage" />
      </cc:Work>
    </rdf:RDF>
  </metadata>
  <defs
     id="defs9" />
  <sodipodi:namedview
     pagecolor="#ffffff"
     bordercolor="#666666"
     borderopacity="1"
     objecttolerance="10"
     gridtolerance="10"
     guidetolerance="10"
     inkscape:pageopacity="0"
     inkscape:pageshadow="2"
     inkscape:window-width="1920"
     inkscape:window-height="1018"
     id="namedview7"
     showgrid="false"
     inkscape:zoom="8.525577"
     inkscape:cx="61.439999"
     inkscape:cy="49.849998"
     inkscape:window-x="-6"
     inkscape:window-y="-6"
     inkscape:window-maximized="1"
     inkscape:current-layer="Layer_1" />
  <title
     id="title2">thought- cloud</title>
  <path
     d="M11.14,41.09A14.74,14.74,0,0,1,9.08,29.66a20.65,20.65,0,0,1,4-8.46,21.64,21.64,0,0,1,7.37-6.06A17.13,17.13,0,0,1,33.28,14a15.88,15.88,0,0,1,7-9.75A26,26,0,0,1,50.87.33a29.13,29.13,0,0,1,11.34.5C66.71,2,70.63,4.29,73,7.85A18.6,18.6,0,0,1,85.93,4.46,27.45,27.45,0,0,1,96.41,7.51a23.2,23.2,0,0,1,8.14,6.82,14.69,14.69,0,0,1,2.89,10.34,15.75,15.75,0,0,1,13.21,8.92,20.43,20.43,0,0,1,2.15,7.48,20.14,20.14,0,0,1-.82,7.8c-1.81,5.73-6.31,10.58-14,12a15.93,15.93,0,0,1-2,8.53,23.52,23.52,0,0,1-8.78,8.8,25.37,25.37,0,0,1-12.74,3.53A22.67,22.67,0,0,1,71.07,77.3c-3.9,3.41-10.59,5.06-17.16,4.93a34.52,34.52,0,0,1-8.32-1.14,21.52,21.52,0,0,1-7.11-3.26,11.24,11.24,0,0,1-4.35-6c-7.44,1.63-13.53.48-18.08-2.23A19.46,19.46,0,0,1,6.58,52.76a17.28,17.28,0,0,1,4.56-11.67ZM7.68,87.85a9.11,9.11,0,0,1,5.18,1.53,5.1,5.1,0,0,1,0,8.79A9.11,9.11,0,0,1,7.68,99.7a9.08,9.08,0,0,1-5.17-1.53,5.1,5.1,0,0,1,0-8.79,9.08,9.08,0,0,1,5.17-1.53Zm3,4.6a5.38,5.38,0,0,0-3-.84,5.37,5.37,0,0,0-3,.84,1.43,1.43,0,0,0,0,2.65,5.37,5.37,0,0,0,3,.85,5.38,5.38,0,0,0,3-.85,1.43,1.43,0,0,0,0-2.65ZM25.87,76.37A12.62,12.62,0,0,1,33,78.48a6.69,6.69,0,0,1,0,11.57,12.62,12.62,0,0,1-7.16,2.1,12.65,12.65,0,0,1-7.17-2.1,6.69,6.69,0,0,1,0-11.57,12.66,12.66,0,0,1,7.17-2.11Zm5,5.18a8.84,8.84,0,0,0-5-1.42,8.85,8.85,0,0,0-5,1.42,3,3,0,0,0,0,5.43,8.92,8.92,0,0,0,5,1.41,8.91,8.91,0,0,0,5-1.41,3,3,0,0,0,0-5.43ZM13.66,30.6a10.07,10.07,0,0,0,2.28,9l.18.2a2.34,2.34,0,0,1-.34,3.3,12.45,12.45,0,0,0-4.52,9.66,14.82,14.82,0,0,0,7.2,12.82c4,2.4,9.73,3.22,17,1.07a2.61,2.61,0,0,1,.69-.09A2.34,2.34,0,0,1,38.44,69a6.14,6.14,0,0,0,2.83,5.08,16.88,16.88,0,0,0,5.53,2.49,30.19,30.19,0,0,0,7.18,1c6.28.12,12.51-1.48,15-4.81l.12-.14a2.33,2.33,0,0,1,3.3-.24A18.29,18.29,0,0,0,84.48,77a20.63,20.63,0,0,0,10.37-2.89,18.71,18.71,0,0,0,7-7,10.78,10.78,0,0,0,1.24-7.64A2.1,2.1,0,0,1,103,59a2.34,2.34,0,0,1,2.17-2.51c6.9-.52,10.85-4.38,12.32-9a15.78,15.78,0,0,0-1-11.72,11.3,11.3,0,0,0-11.74-6.32,2.34,2.34,0,0,1-2.47-3.08,10,10,0,0,0-1.55-9.27,18.37,18.37,0,0,0-6.49-5.42,22.85,22.85,0,0,0-8.66-2.51c-4.46-.35-8.77.82-11.44,4.08a2.38,2.38,0,0,1-1,.72,2.34,2.34,0,0,1-3-1.45c-1.28-3.67-4.79-6-9.05-7.11A24.67,24.67,0,0,0,51.55,5,21.23,21.23,0,0,0,42.9,8.13a11,11,0,0,0-5.31,9.1,2.19,2.19,0,0,1-.26,1.16,2.33,2.33,0,0,1-3.15,1,12.59,12.59,0,0,0-11.67-.06,16.8,16.8,0,0,0-5.75,4.75,16,16,0,0,0-3.1,6.51Z"
     id="path4" />
  <path
     style="fill:#ffffff;stroke-width:0.117294"
     d="m 51.176764,77.336409 c -1.437155,-0.161841 -4.214072,-0.748465 -5.440263,-1.149255 -2.30611,-0.753769 -4.475143,-1.992707 -5.58231,-3.188579 -1.029505,-1.111989 -1.397203,-1.967574 -1.644536,-3.826627 -0.187435,-1.408836 -0.427846,-1.883465 -1.176146,-2.321997 -0.700821,-0.410709 -1.314404,-0.391832 -3.287478,0.101143 -2.517923,0.629106 -4.128936,0.83256 -6.562678,0.828796 -2.495395,-0.0039 -3.813132,-0.199435 -5.821645,-0.864037 -2.465128,-0.815691 -4.212159,-1.878161 -5.973507,-3.632834 -2.967756,-2.956511 -4.454275,-6.740625 -4.301415,-10.94978 0.07355,-2.025381 0.3415,-3.159076 1.151381,-4.871563 0.740363,-1.565494 1.336033,-2.389127 2.780911,-3.845159 1.069545,-1.077803 1.1853,-1.238084 1.310269,-1.814266 0.188609,-0.869599 -0.02394,-1.502793 -0.847721,-2.525376 -2.385292,-2.960941 -2.909185,-6.351952 -1.59,-10.291617 1.378826,-4.117777 4.807693,-7.933872 8.816964,-9.81268 3.318929,-1.555302 7.226301,-1.54339 10.632704,0.03242 1.032685,0.477721 1.557745,0.567687 2.256024,0.386555 1.13006,-0.293133 1.660254,-1.10484 1.778027,-2.722092 0.247256,-3.395261 2.081145,-6.56912 4.861006,-8.4128057 4.912792,-3.2583074 11.353406,-4.4226545 17.566677,-3.1757387 4.76164,0.955594 8.29275,3.3929937 9.734416,6.7193224 0.67757,1.563342 1.348762,2.133704 2.510907,2.133704 0.813239,0 1.299877,-0.280843 2.345883,-1.353827 1.808187,-1.854825 3.948053,-2.9248984 6.803999,-3.4024466 0.952842,-0.1593266 1.621537,-0.1875301 3.211054,-0.1354326 3.181429,0.1042735 5.845738,0.7676662 8.861563,2.2064612 2.009522,0.958705 3.566539,2.028835 5.08154,3.492517 2.11847,2.046705 3.14915,3.617583 3.74156,5.702551 0.38145,1.342541 0.38629,3.693049 0.0104,5.069862 -0.41803,1.531291 -0.32578,2.303156 0.3662,3.0639 0.54891,0.603466 0.80666,0.660656 3.0066,0.667108 2.41222,0.0071 3.46666,0.218624 5.24049,1.051391 1.33963,0.628922 1.95944,1.052602 3.03633,2.075549 1.81711,1.726074 3.11269,4.228759 3.77373,7.28974 0.29342,1.35866 0.2896,4.677581 -0.007,6.053771 -1.28463,5.961278 -5.54685,9.675441 -11.98494,10.443841 -1.37025,0.163542 -1.70062,0.27741 -2.13594,0.736194 -0.7296,0.768917 -0.87004,1.383913 -0.61187,2.679545 0.0692,0.347492 0.1255,1.238801 0.12502,1.980686 -0.001,2.29404 -0.62794,4.191627 -2.11882,6.417949 -2.820574,4.211918 -7.413554,7.228132 -12.735213,8.363223 -1.820399,0.388285 -4.962379,0.450832 -6.803059,0.135428 -2.855604,-0.489314 -5.702766,-1.722589 -7.956874,-3.446595 -1.840694,-1.407817 -1.902293,-1.44043 -2.71689,-1.438455 -0.860407,0.0021 -1.439592,0.304875 -2.09329,1.094339 -1.871341,2.26 -5.650368,3.851039 -10.492244,4.417424 -1.635408,0.191304 -5.571001,0.212167 -7.119878,0.03775 z"
     id="path13" />
  <path
     style="fill:#ffffff;stroke-width:0.117294"
     d="m 51.176764,77.336409 c -1.437155,-0.161841 -4.214072,-0.748465 -5.440263,-1.149255 -2.30611,-0.753769 -4.475143,-1.992707 -5.58231,-3.188579 -1.031263,-1.113888 -1.397128,-1.966932 -1.646001,-3.83779 -0.191804,-1.441853 -0.473601,-1.966853 -1.260072,-2.347577 -0.69821,-0.337997 -1.3614,-0.315737 -3.01256,0.101116 -2.579616,0.651253 -4.179515,0.859179 -6.634911,0.862285 -2.618968,0.0033 -3.879914,-0.179441 -5.938939,-0.860756 C 19.19658,66.100162 17.449549,65.037692 15.688201,63.283019 12.715081,60.321165 11.23365,56.55 11.386786,52.333239 c 0.07355,-2.025381 0.3415,-3.159076 1.151381,-4.871563 0.740199,-1.565147 1.336038,-2.389131 2.779436,-3.843673 1.060232,-1.068418 1.184286,-1.239379 1.303842,-1.796848 0.19201,-0.895313 0.01385,-1.405245 -0.924092,-2.644921 -2.350002,-3.105996 -2.817844,-6.27242 -1.505727,-10.190976 1.378826,-4.117777 4.807693,-7.933872 8.816964,-9.81268 3.318929,-1.555302 7.226301,-1.54339 10.632704,0.03242 1.033294,0.478003 1.557656,0.56771 2.257416,0.386194 0.694682,-0.180198 1.308393,-0.7371 1.545987,-1.402882 0.0936,-0.262293 0.204209,-0.921061 0.245789,-1.46393 0.252034,-3.290554 2.103015,-6.448586 4.845865,-8.2677247 4.912792,-3.2583074 11.353406,-4.4226545 17.566677,-3.1757387 3.101018,0.6223305 5.695325,1.8702829 7.537628,3.6258612 0.978222,0.9321734 1.641226,1.8739442 2.278566,3.2366152 0.285756,0.610964 0.646432,1.227085 0.801502,1.369157 0.654031,0.599211 1.71408,0.783101 2.540424,0.440695 0.239847,-0.09938 0.911127,-0.648824 1.491733,-1.220978 2.654356,-2.615719 5.595026,-3.6404249 10.014895,-3.4897901 3.132223,0.1067502 5.852569,0.7886701 8.81081,2.2086401 2.022875,0.97099 3.562707,2.030188 5.073804,3.490098 2.11847,2.046705 3.14915,3.617583 3.74156,5.702551 0.38145,1.342541 0.38629,3.693049 0.0104,5.069862 -0.41803,1.531291 -0.32578,2.303156 0.3662,3.0639 0.53865,0.592184 0.8105,0.652365 3.0066,0.665585 2.43355,0.01465 3.51357,0.230312 5.23345,1.045023 1.35146,0.640193 1.96923,1.063108 3.04337,2.08344 1.78725,1.697704 3.09232,4.191639 3.74788,7.162014 0.25995,1.177872 0.35688,3.923644 0.18165,5.145865 -0.71692,5.000378 -3.46455,8.641207 -7.87617,10.436529 -1.05738,0.430305 -2.95651,0.891718 -4.33018,1.052063 -1.28373,0.149846 -1.73743,0.330008 -2.22258,0.882563 -0.5603,0.638141 -0.65937,1.158396 -0.47352,2.486712 0.44757,3.198966 -0.13432,5.669597 -1.98687,8.43598 -2.830396,4.226595 -7.378396,7.210672 -12.74764,8.364105 -1.803539,0.38744 -4.950829,0.449798 -6.790626,0.134546 -2.854687,-0.489156 -5.70132,-1.722054 -7.957836,-3.446595 -1.687802,-1.289903 -1.809588,-1.364343 -2.369465,-1.448302 -0.899444,-0.13488 -1.42695,0.110904 -2.439572,1.136686 -1.177284,1.192582 -1.884453,1.722116 -3.188258,2.387398 -1.876234,0.957371 -4.465449,1.665463 -7.304167,1.997526 -1.635407,0.191304 -5.571,0.212167 -7.119877,0.03775 z"
     id="path15" />
  <path
     style="fill:#ffffff;stroke-width:0.117294"
     d="m 51.704587,77.39314 c -5.109835,-0.523766 -9.520604,-2.202147 -11.551227,-4.395464 -0.986427,-1.065458 -1.479123,-2.200291 -1.647257,-3.794149 -0.146061,-1.384607 -0.484051,-2.015664 -1.28803,-2.404863 -0.665618,-0.32222 -1.353772,-0.295535 -2.982515,0.11566 -2.579616,0.651253 -4.179515,0.859179 -6.634911,0.862285 -2.618968,0.0033 -3.879914,-0.179441 -5.938939,-0.860756 C 19.19658,66.100162 17.449549,65.037692 15.688201,63.283019 12.715081,60.321165 11.23365,56.55 11.386786,52.333239 c 0.07355,-2.025381 0.3415,-3.159076 1.151381,-4.871563 0.728733,-1.540904 1.395367,-2.472984 2.68477,-3.753821 1.194501,-1.186565 1.444223,-1.605066 1.444223,-2.420327 0,-0.704464 -0.180694,-1.082352 -1.054692,-2.205697 -0.727626,-0.935212 -1.557278,-2.578332 -1.847526,-3.659009 -0.30266,-1.126895 -0.361505,-3.098985 -0.129497,-4.339882 0.624294,-3.339032 2.307093,-6.333768 5.009147,-8.914352 2.666749,-2.546867 5.804375,-3.982529 9.030113,-4.131845 2.166119,-0.100268 3.899727,0.246211 6.123061,1.223754 0.819035,0.360108 1.027508,0.405424 1.675354,0.364172 0.610584,-0.03888 0.817566,-0.109873 1.184135,-0.406152 0.699222,-0.565146 0.840058,-0.913822 1.032048,-2.555093 0.457329,-3.909581 2.331566,-6.7686863 5.751183,-8.7732991 4.868285,-2.8538358 10.808533,-3.7840273 16.662542,-2.6092103 3.093502,0.6208221 5.633623,1.834214 7.477293,3.5718319 1.02671,0.9676514 1.70349,1.9190485 2.349257,3.3025145 0.282135,0.604436 0.639,1.215215 0.793032,1.357287 0.645885,0.595733 1.714118,0.783649 2.52611,0.444378 0.23301,-0.09736 0.90429,-0.645887 1.491732,-1.218953 2.698468,-2.63243 5.606507,-3.6461652 10.027324,-3.4954981 4.026085,0.1372141 8.030467,1.4270061 11.449927,3.6879651 1.487883,0.983794 3.973137,3.432872 4.848667,4.778083 1.4955,2.297776 1.99109,4.957754 1.41008,7.568359 -0.45222,2.031938 -0.41224,2.661529 0.21648,3.408721 0.56614,0.672821 0.82687,0.736112 3.14289,0.762939 2.48182,0.02875 3.45294,0.22394 5.17674,1.040509 1.3495,0.639267 1.96762,1.062504 3.04144,2.082523 1.78083,1.691612 3.10915,4.222331 3.74369,7.132484 0.26379,1.209805 0.36205,3.946294 0.18583,5.175395 -0.43423,3.028689 -1.53295,5.430973 -3.37896,7.387833 -2.16017,2.289892 -5.04364,3.636965 -8.76874,4.096489 -1.29616,0.159893 -1.87002,0.390257 -2.328,0.934543 -0.51672,0.614084 -0.6086,1.139212 -0.42675,2.439002 0.53862,3.849695 -0.48319,6.910725 -3.465192,10.380689 -2.649281,3.082797 -6.834092,5.466613 -11.269313,6.419396 -1.803539,0.38744 -4.950829,0.449798 -6.790626,0.134546 -2.962575,-0.507643 -5.653065,-1.697689 -8.240737,-3.645006 -1.709826,-1.286706 -2.117381,-1.443008 -3.083976,-1.18273 -0.391951,0.105542 -0.708362,0.334041 -1.308359,0.944846 -0.435262,0.4431 -1.078924,1.039841 -1.430361,1.32609 -1.907217,1.553451 -5.28873,2.72647 -9.167766,3.180226 -1.372127,0.160507 -5.424238,0.220345 -6.620153,0.09776 z"
     id="path17" />
  <path
     style="fill:#ffffff;stroke-width:0.117294"
     d="M 51.704587,77.400299 C 46.239126,76.744767 42.195718,75.203667 40.15336,72.997676 39.151246,71.915275 38.660952,70.770395 38.5034,69.14488 c -0.09494,-0.979532 -0.509315,-1.851768 -1.054451,-2.219564 -0.683157,-0.460919 -1.404143,-0.453804 -3.415736,0.03371 -2.708606,0.656433 -3.918191,0.809764 -6.432566,0.815406 -2.619024,0.0059 -3.875333,-0.175746 -5.938939,-0.858576 C 19.37919,66.160587 17.629843,65.14218 15.999216,63.619354 12.891517,60.717105 11.235738,56.669092 11.3828,52.333239 c 0.06875,-2.026962 0.33505,-3.152825 1.152268,-4.871563 0.718613,-1.511355 1.418764,-2.501073 2.590422,-3.66176 1.301283,-1.289097 1.508157,-1.628721 1.508157,-2.475934 0,-0.812103 -0.129105,-1.095573 -1.021179,-2.242151 -0.727626,-0.935212 -1.557278,-2.578332 -1.847526,-3.659009 -0.103959,-0.38707 -0.220033,-1.28437 -0.257943,-1.993999 -0.331896,-6.212769 5.205072,-13.352426 11.656587,-15.030613 2.798918,-0.728062 5.659534,-0.445589 8.605727,0.849776 1.066743,0.46902 1.865481,0.52413 2.545095,0.175605 0.944708,-0.484475 1.153891,-0.917077 1.384392,-2.862986 0.45064,-3.804348 2.36048,-6.6883846 5.741686,-8.6704801 3.946385,-2.3134087 8.851183,-3.4168476 13.513013,-3.0400403 6.509272,0.5261327 11.002333,3.0125285 12.889111,7.1326494 0.231623,0.50579 0.554153,1.096906 0.716733,1.313591 0.55232,0.73613 1.770069,1.044712 2.658242,0.673609 0.215887,-0.0902 0.940482,-0.684004 1.61021,-1.319558 2.506296,-2.378404 4.800487,-3.2806624 8.663497,-3.4071752 2.150954,-0.070443 3.711027,0.097676 5.806059,0.6256828 2.361489,0.5951614 4.916088,1.7298754 6.983458,3.1019444 1.425795,0.946271 3.934151,3.429534 4.785561,4.737695 1.4912,2.291159 1.98671,4.938852 1.4164,7.568359 -0.4551,2.098301 -0.42052,2.659205 0.21016,3.408721 0.55111,0.654959 0.80895,0.717158 3.1308,0.755256 2.49711,0.04097 3.483,0.240133 5.18883,1.048192 1.3495,0.639267 1.96762,1.062504 3.04144,2.082523 1.81083,1.720113 3.12374,4.246949 3.76687,7.249778 0.16426,0.766939 0.21247,1.49772 0.20891,3.166941 -0.004,1.949399 -0.0363,2.29645 -0.3164,3.414672 -1.4238,5.684548 -5.55611,9.164892 -11.81891,9.954209 -1.29404,0.163092 -1.90144,0.394077 -2.33513,0.888022 -0.56516,0.643685 -0.66448,1.161196 -0.47827,2.492124 0.46787,3.343994 -0.21346,5.969543 -2.3195,8.938384 -1.002697,1.413489 -2.938599,3.347888 -4.371628,4.368237 -1.363668,0.970963 -4.240613,2.415876 -5.756142,2.890958 -2.034883,0.637888 -3.283396,0.845805 -5.50039,0.915991 -1.613761,0.05109 -2.326371,0.02201 -3.332833,-0.136006 -3.158451,-0.495877 -6.22409,-1.853557 -8.735836,-3.86884 -1.25869,-1.009901 -1.924609,-1.246572 -2.825163,-1.004078 -0.39097,0.105277 -0.743433,0.372645 -1.571534,1.192121 -1.547487,1.531366 -2.777429,2.30344 -4.812691,3.021081 -2.881075,1.015878 -4.789719,1.314406 -8.690589,1.359285 -1.677306,0.0193 -3.234386,0.01293 -3.460177,-0.01415 z"
     id="path19" />
  <path
     style="fill:#ffffff;stroke-width:0.117294"
     d="m 24.844235,88.296705 c -1.849684,-0.211166 -4.336011,-1.329429 -5.023597,-2.25944 -0.875141,-1.183691 -0.764634,-2.782445 0.26338,-3.810459 0.560408,-0.560408 2.350409,-1.478837 3.469982,-1.780409 1.046941,-0.282008 3.518739,-0.286106 4.57447,-0.0076 1.018397,0.268672 2.842039,1.175867 3.432114,1.707349 0.617516,0.5562 0.931227,1.270203 0.931227,2.119462 0,1.237646 -0.569796,2.058502 -1.962595,2.827344 -1.807454,0.997737 -3.797833,1.419179 -5.684981,1.203737 z"
     id="path21" />
  <path
     style="fill:#ffffff;stroke-width:0.117294"
     d="m 24.844235,88.296705 c -1.849684,-0.211166 -4.336011,-1.329429 -5.023597,-2.25944 -0.875141,-1.183691 -0.764634,-2.782445 0.26338,-3.810459 0.560408,-0.560408 2.350409,-1.478837 3.469982,-1.780409 1.046941,-0.282008 3.518739,-0.286106 4.57447,-0.0076 1.018397,0.268672 2.842039,1.175867 3.432114,1.707349 0.617516,0.5562 0.931227,1.270203 0.931227,2.119462 0,1.237646 -0.569796,2.058502 -1.962595,2.827344 -1.807454,0.997737 -3.797833,1.419179 -5.684981,1.203737 z"
     id="path23" />
  <path
     style="fill:#ffffff;stroke-width:0.117294"
     d="m 24.961529,88.312431 c -0.161279,-0.02824 -0.609929,-0.107946 -0.997,-0.177126 -1.538946,-0.27505 -3.64532,-1.374204 -4.194573,-2.188825 -0.911731,-1.352227 -0.628261,-3.098826 0.654269,-4.031278 0.689,-0.50093 2.227275,-1.222014 3.129775,-1.467115 1.049216,-0.284946 3.516843,-0.288987 4.57447,-0.0075 1.064811,0.283409 2.811181,1.14614 3.407561,1.683382 1.293562,1.165291 1.290201,3.13676 -0.0073,4.309015 -0.577068,0.521347 -2.402227,1.401786 -3.400216,1.640232 -0.788907,0.188491 -2.652617,0.32926 -3.166941,0.239204 z"
     id="path25" />
  <path
     style="fill:#ffffff;stroke-width:0.117294"
     d="M 24.496966,88.251251 C 22.824711,87.996348 20.765969,87.054347 19.950051,86.170756 19.131331,85.284132 19.00205,83.820218 19.649194,82.764 c 0.605561,-0.988349 2.67766,-2.100964 4.545889,-2.440918 2.522241,-0.458962 5.676905,0.319445 7.340337,1.811214 1.297207,1.163338 1.294136,3.12344 -0.0067,4.298699 -0.591673,0.53454 -2.426921,1.42272 -3.400216,1.645555 -1.023685,0.234371 -2.702997,0.314233 -3.631504,0.172701 z"
     id="path27" />
  <path
     style="fill:#ffffff;stroke-width:0.117294"
     d="M 6.3704121,95.756713 C 5.5820802,95.578435 4.4012712,94.909221 4.1024057,94.471339 3.7696372,93.983785 3.8116677,93.3108 4.200752,92.896639 c 0.3216027,-0.34233 1.538092,-0.945027 2.2283071,-1.103991 1.6378127,-0.377205 3.9066399,0.181562 4.7351329,1.16617 0.4085,0.485476 0.418652,1.138112 0.02498,1.605963 -0.847538,1.007243 -3.134274,1.572872 -4.8187609,1.191932 z"
     id="path29" />
  <path
     style="fill:#ffffff;stroke-width:0.117294"
     d="M 6.3704121,95.756713 C 5.5820802,95.578435 4.4012712,94.909221 4.1024057,94.471339 3.7696372,93.983785 3.8116677,93.3108 4.200752,92.896639 c 0.3216027,-0.34233 1.538092,-0.945027 2.2283071,-1.103991 1.204018,-0.277298 2.6901938,-0.08039 3.8573979,0.511076 1.591281,0.806364 1.591281,2.139477 0,2.94584 -1.1536232,0.584585 -2.6924181,0.783868 -3.9160449,0.507149 z"
     id="path31" />
  <path
     style="fill:#ffffff;stroke-width:0.117294"
     d="M 6.2041744,95.701661 C 5.3399049,95.469291 4.3452037,94.88057 4.0663439,94.436371 3.7931171,94.001145 3.8342628,93.295437 4.1534273,92.942764 c 0.3349045,-0.370066 1.3550218,-0.902583 2.1014971,-1.097015 1.3089633,-0.340942 2.7860792,-0.173144 4.0315326,0.457975 1.591281,0.806364 1.591281,2.139477 0,2.94584 -1.2360864,0.626373 -2.7928472,0.798778 -4.0822826,0.452097 z"
     id="path33" />
</svg>
