<?xml version="1.0" encoding="UTF-8" standalone="no"?>
<svg
   xmlns:dc="http://purl.org/dc/elements/1.1/"
   xmlns:cc="http://creativecommons.org/ns#"
   xmlns:rdf="http://www.w3.org/1999/02/22-rdf-syntax-ns#"
   xmlns:svg="http://www.w3.org/2000/svg"
   xmlns="http://www.w3.org/2000/svg"
   xmlns:sodipodi="http://sodipodi.sourceforge.net/DTD/sodipodi-0.dtd"
   xmlns:inkscape="http://www.inkscape.org/namespaces/inkscape"
   version="1.0"
   width="1280.000000pt"
   height="1280.000000pt"
   viewBox="0 0 1280.000000 1280.000000"
   preserveAspectRatio="xMidYMid meet"
   id="svg8"
   sodipodi:docname="cloud2.svg"
   inkscape:version="1.0.1 (3bc2e813f5, 2020-09-07)">
  <defs
     id="defs12" />
  <sodipodi:namedview
     pagecolor="#ffffff"
     bordercolor="#666666"
     borderopacity="1"
     objecttolerance="10"
     gridtolerance="10"
     guidetolerance="10"
     inkscape:pageopacity="0"
     inkscape:pageshadow="2"
     inkscape:window-width="1920"
     inkscape:window-height="1018"
     id="namedview10"
     showgrid="false"
     inkscape:zoom="0.49804688"
     inkscape:cx="853.33333"
     inkscape:cy="853.33333"
     inkscape:window-x="-6"
     inkscape:window-y="-6"
     inkscape:window-maximized="1"
     inkscape:current-layer="svg8"
     inkscape:document-rotation="0" />
  <metadata
     id="metadata2">
Created by potrace 1.15, written by Peter Selinger 2001-2017
<rdf:RDF>
  <cc:Work
     rdf:about="">
    <dc:format>image/svg+xml</dc:format>
    <dc:type
       rdf:resource="http://purl.org/dc/dcmitype/StillImage" />
  </cc:Work>
</rdf:RDF>
</metadata>
  <g
     transform="translate(0.000000,1280.000000) scale(0.100000,-0.100000)"
     fill="#000000"
     stroke="none"
     id="g6">
    <path
       d="M7130 10060 c-360 -44 -693 -172 -965 -372 -39 -28 -129 -111 -202 -183 l-132 -133 -58 44 c-138 103 -372 199 -593 243 -204 40 -278 46 -565 46 -241 0 -302 -4 -435 -24 -491 -73 -875 -237 -1115 -476 -109 -108 -176 -212 -221 -342 -18 -52 -34 -97 -36 -98 -2 -2 -42 3 -88 12 -123 23 -414 23 -545 -1 -371 -67 -703 -241 -956 -502 -193 -200 -310 -412 -359 -654 -19 -91 -21 -127 -17 -270 7 -223 48 -375 158 -578 l52 -96 -44 -36 c-265 -213 -437 -493 -490 -800 -16 -93 -17 -291 -1 -386 31 -190 120 -401 230 -549 181 -242 470 -425 793 -500 l76 -18 7 -95 c41 -546 481 -969 1140 -1093 141 -27 482 -37 648 -20 175 19 451 70 569 107 13 3 27 -14 57 -68 218 -396 683 -729 1121 -802 119 -20 332 -21 442 -1 342 59 651 237 934 538 l94 99 85 -85 c121 -121 260 -225 415 -311 452 -250 981 -342 1421 -246 404 87 720 332 904 700 29 58 57 119 63 136 l11 31 88 -18 c407 -83 906 -17 1266 168 373 190 607 493 674 874 32 181 18 438 -36 649 l-19 74 37 31 c300 243 544 670 613 1076 29 168 23 368 -16 509 -95 349 -349 606 -745 753 -53 20 -126 43 -164 53 -60 15 -67 19 -62 38 3 12 19 73 36 136 56 202 53 434 -7 625 -172 550 -765 888 -1513 862 -181 -7 -373 -32 -536 -72 -58 -14 -107 -25 -110 -25 -2 0 -4 8 -4 18 0 10 -9 48 -21 83 -150 466 -632 817 -1274 930 -136 24 -475 34 -605 19z m512 -235 c409 -59 777 -248 980 -504 34 -42 81 -116 105 -166 57 -119 76 -210 71 -351 l-3 -111 115 39 c146 49 310 91 470 120 109 20 158 23 380 23 282 -1 363 -12 547 -76 624 -218 853 -803 550 -1401 l-54 -106 61 -7 c186 -20 435 -92 581 -168 432 -224 577 -646 403 -1174 -113 -344 -358 -678 -578 -788 -30 -15 -56 -28 -57 -29 -1 -1 12 -46 28 -101 57 -189 70 -270 76 -450 4 -144 2 -185 -15 -265 -38 -185 -110 -324 -239 -460 -135 -142 -290 -236 -512 -310 -360 -120 -839 -116 -1117 10 -37 16 -70 30 -74 30 -3 0 -14 -35 -24 -77 -57 -243 -172 -451 -336 -606 -296 -280 -747 -366 -1251 -238 -504 127 -950 453 -1074 784 -10 26 -20 47 -24 47 -3 0 -19 -20 -34 -45 -119 -188 -345 -437 -508 -559 -206 -156 -392 -233 -626 -257 -345 -37 -740 129 -1030 434 -135 142 -250 334 -274 459 -9 47 -15 59 -28 55 -9 -3 -77 -23 -151 -46 -538 -164 -1021 -182 -1410 -52 -398 134 -666 431 -709 788 -10 81 -2 212 18 280 5 17 7 34 3 37 -3 3 -30 6 -61 6 -138 0 -367 58 -506 128 -295 148 -493 405 -559 724 -23 110 -21 309 4 421 66 300 269 562 546 704 41 21 72 43 70 48 -2 6 -33 50 -70 98 -77 102 -175 298 -205 407 -65 238 -42 468 69 696 199 410 681 720 1170 753 224 15 424 -21 606 -108 86 -41 104 -47 99 -32 -3 11 -10 54 -14 96 -34 303 140 558 504 736 302 148 659 221 1075 221 605 -1 1039 -172 1174 -462 14 -30 26 -63 26 -72 0 -34 15 -17 59 67 149 287 436 549 749 685 303 131 653 175 1004 125z"
       id="path4" />
  </g>
  <path
     style="fill:#ffffff;stroke-width:2.00784"
     d="m 1049.098,1354.4614 c -70.38406,-14.5835 -132.76576,-55.3321 -155.22541,-101.3956 -3.54591,-7.2725 -6.8144,-13.2227 -7.26331,-13.2227 -0.4489,0 -6.03062,7.4542 -12.40383,16.5647 -16.39009,23.4299 -50.56127,57.8302 -71.10285,71.5796 -49.28121,32.9862 -100.83414,36.3229 -153.51015,9.9357 -40.75092,-20.4135 -78.74425,-60.8211 -89.17522,-94.842 -2.20899,-7.2046 -5.03097,-12.5268 -6.83319,-12.8873 -1.68858,-0.3377 -12.86518,2.2397 -24.8369,5.7277 -63.83333,18.5977 -121.09302,21.9569 -168.67286,9.8953 -19.94111,-5.0551 -48.51381,-18.9764 -63.3536,-30.8673 -32.67016,-26.1781 -49.96657,-66.857 -44.21811,-103.9953 1.23132,-7.9549 1.87293,-15.0555 1.4258,-15.779 -0.44713,-0.7234 -7.39216,-1.8147 -15.43341,-2.4249 -20.86657,-1.5835 -37.95928,-6.4183 -59.59297,-16.8563 -15.7324,-7.5907 -21.78392,-11.9949 -36.38939,-26.4837 -14.34019,-14.2257 -19.00699,-20.4755 -25.72067,-34.4456 -20.044849,-41.71002 -19.345757,-83.85507 2.07391,-125.02638 10.43139,-20.05044 32.43083,-42.90134 52.44956,-54.47953 7.45102,-4.30941 14.02258,-8.60435 14.60348,-9.54426 0.5809,-0.93991 -3.96815,-9.26005 -10.10902,-18.4892 -20.93074,-31.45696 -29.23731,-55.58686 -29.23731,-84.93197 0,-41.20829 20.68801,-81.66047 57.06559,-111.58289 55.49653,-45.64871 128.14047,-58.22605 188.09214,-32.56567 8.91976,3.81781 16.36354,6.94151 16.54175,6.94154 0.1783,4e-5 0.35266,-10.16466 0.38766,-22.58823 0.0568,-20.18692 0.635,-23.82226 5.43846,-34.19534 5.78793,-12.49903 23.46675,-32.47533 37.01531,-41.82569 51.59382,-35.6068 140.41277,-51.24964 220.59402,-38.85113 50.78235,7.85253 87.17017,28.65889 101.18353,57.8562 l 5.79989,12.08429 5.69768,-9.65308 c 24.2493,-41.08337 50.05492,-66.55522 87.73435,-86.59954 34.88776,-18.55926 65.05239,-25.5981 109.71236,-25.60112 35.73791,-0.002 57.49871,3.74193 87.57481,15.06892 28.9971,10.92059 47.8119,22.61441 67.2334,41.78701 25.8602,25.52888 35.9369,48.65509 35.9369,82.476 v 13.66124 l 14.5569,-5.00299 c 8.0062,-2.75164 25.3992,-7.80037 38.6509,-11.2194 22.4055,-5.78073 27.1211,-6.27932 67.2834,-7.11406 38.861,-0.80769 44.9734,-0.47391 60.9923,3.33055 45.0556,10.7007 80.3652,36.28594 97.8331,70.8898 17.7636,35.1894 15.4728,78.99744 -6.3964,122.32001 -3.377,6.68977 -5.855,12.36354 -5.5066,12.60833 0.3484,0.2448 9.6513,1.99923 20.6731,3.89873 42.4722,7.31967 73.7223,21.46919 95.6432,43.30566 32.9319,32.80503 40.3077,77.48568 21.8979,132.65005 -14.2356,42.65641 -46.9247,87.91175 -73.442,101.67425 -8.9718,4.6563 -10.8676,6.5065 -10.0017,9.761 0.5876,2.2087 3.3945,12.5993 6.2376,23.0902 7.0842,26.1407 8.8391,63.3169 4.0129,85.0099 -11.2858,50.7275 -52.2105,87.9689 -113.7786,103.5381 -43.0647,10.8902 -87.7483,9.9367 -124.8095,-2.6633 l -19.5965,-6.6624 -3.1478,11.283 c -16.7936,60.1963 -53.0623,99.022 -106.2395,113.7297 -18.8821,5.2223 -65.7003,5.8203 -88.3451,1.1284 z"
     id="path14"
     transform="scale(0.75000002)" />
  <path
     style="fill:#ffffff;stroke-width:2.00784"
     d="m 1051.1059,1355.0885 c -68.57597,-12.8803 -134.73643,-55.8829 -157.35818,-102.2788 -3.6146,-7.4133 -7.25939,-12.6859 -8.09958,-11.7168 -0.84018,0.9691 -7.91771,10.3455 -15.72783,20.8365 -28.00765,37.6213 -66.97183,70.7203 -97.76285,83.0468 -18.50639,7.4086 -47.00885,12.0515 -63.85529,10.4016 -63.98238,-6.266 -130.59564,-57.6731 -149.05923,-115.0327 -2.31014,-7.1768 -4.46307,-10.5339 -6.74549,-10.5183 -1.8438,0.012 -12.26954,2.7114 -23.16834,5.9973 -78.67797,23.7209 -150.82558,22.714 -203.0546,-2.834 -9.93882,-4.8615 -23.23805,-12.9798 -29.55383,-18.0406 -30.58817,-24.5098 -47.83416,-61.2583 -44.85411,-95.577 0.7192,-8.2823 1.49167,-17.3173 1.71661,-20.0778 0.39464,-4.843 -0.12842,-5.0677 -14.91733,-6.4097 -22.01669,-1.9979 -38.26138,-6.6163 -59.76386,-16.991 -15.7324,-7.5907 -21.78392,-11.9949 -36.38939,-26.4837 -14.34019,-14.2257 -19.00699,-20.4755 -25.72067,-34.4456 -20.044849,-41.71002 -19.345757,-83.85507 2.07391,-125.02638 10.43139,-20.05044 32.43083,-42.90134 52.44956,-54.47953 7.45102,-4.30941 14.02258,-8.60435 14.60348,-9.54426 0.5809,-0.93991 -3.96815,-9.26005 -10.10902,-18.4892 -21.12394,-31.74734 -29.23731,-55.21334 -29.23731,-84.56205 0,-57.36564 38.2981,-110.25434 101.15748,-139.69588 24.63847,-11.53996 42.93016,-16.03856 70.5665,-17.35488 28.99102,-1.38086 48.81916,1.99679 73.34408,12.4939 8.96907,3.83892 16.45321,6.97985 16.63142,6.97985 0.17824,0 0.32405,-10.1647 0.32405,-22.58823 0,-20.38585 0.53248,-23.72473 5.46133,-34.24439 11.2226,-23.95248 40.67419,-48.09027 75.85632,-62.16996 39.19193,-15.68438 75.24639,-22.04454 125.49019,-22.13699 83.0004,-0.15271 138.24747,21.44907 157.5122,61.58782 l 5.82506,12.13667 3.66469,-6.60276 C 815.92043,450.8848 866.2233,413.906 934.65098,399.34956 c 23.72718,-5.04741 72.31462,-4.72322 97.38042,0.64976 43.7153,9.37061 78.345,26.83886 104.6121,52.76931 25.8602,25.52888 35.9369,48.65509 35.9369,82.476 v 13.66124 l 14.5569,-5.00299 c 8.0062,-2.75164 25.3992,-7.80037 38.6509,-11.2194 22.4055,-5.78073 27.1211,-6.27932 67.2834,-7.11406 38.861,-0.80769 44.9734,-0.47391 60.9923,3.33055 33.3068,7.91036 66.8042,27.40699 83.6041,48.66053 31.1382,39.39271 34.5772,87.24917 10.0336,139.62388 -4.4628,9.52346 -7.8802,17.46466 -7.5942,17.6471 0.286,0.18251 9.5379,1.88586 20.5597,3.78536 42.4722,7.31967 73.7223,21.46919 95.6432,43.30566 32.6571,32.53134 39.8183,73.25056 22.7992,129.63828 -12.4923,41.38942 -44.8925,87.59361 -73.0793,104.21442 -6.155,3.6295 -11.0628,7.8683 -10.9061,9.4197 0.1566,1.5514 2.7164,11.8561 5.6882,22.8992 7.311,27.1676 9.1088,63.9617 4.2027,86.0138 -11.8363,53.2017 -57.4855,92.405 -122.8676,105.5182 -43.7381,8.7722 -80.3734,7.3015 -115.6419,-4.6422 l -19.518,-6.6098 -3.1819,11.2561 c -17.0429,60.2893 -53.2725,99.0192 -106.3625,113.7028 -17.0889,4.7264 -65.3005,5.7067 -86.3372,1.7555 z"
     id="path16"
     transform="scale(0.75000002)" />
  <path
     style="fill:#02122c;stroke-width:2.00784"
     d="m 1047.0902,1385.3016 c -61.23101,-11.4557 -116.39492,-39.457 -153.46797,-77.9006 l -8.90326,-9.2324 -20.21047,19.6414 c -32.36042,31.4493 -59.50678,48.7387 -93.21958,59.3713 -56.8899,17.9424 -118.19953,5.9568 -171.42518,-33.5124 -19.44867,-14.4221 -46.86949,-43.69 -56.54613,-60.3552 -4.30941,-7.4217 -8.52478,-13.9202 -9.36745,-14.441 -0.84269,-0.5208 -15.38738,1.9507 -32.32155,5.4922 -29.58027,6.1863 -32.68179,6.4431 -78.97763,6.5391 -43.59561,0.09 -49.87984,-0.3311 -65.93739,-4.423 -67.96793,-17.3197 -115.35279,-56.8363 -132.88348,-110.8183 -1.95284,-6.0133 -4.564,-18.5801 -5.80258,-27.9262 l -2.25197,-16.9928 -16.03678,-4.2437 c -37.28946,-9.8676 -75.31003,-34.0551 -96.19447,-61.196 -11.69939,-15.2042 -23.932842,-39.7621 -29.655556,-59.53175 -3.842381,-13.27383 -4.594998,-20.48542 -4.492865,-43.05069 0.113601,-25.09914 0.602834,-28.51803 6.608284,-46.18039 9.616005,-28.28119 22.02349,-47.75908 45.174527,-70.91716 l 19.78262,-19.78862 -9.26388,-18.66462 c -13.15627,-26.50693 -17.44641,-44.68014 -17.78813,-75.35116 -0.20768,-18.63976 0.64647,-28.45636 3.31935,-38.14902 20.38602,-73.92569 92.75651,-133.37835 178.77446,-146.86393 13.76122,-2.15743 62.07378,-1.19322 73.72561,1.47141 4.93382,1.1283 5.60193,0.42017 9.5438,-10.11545 9.71425,-25.9636 23.42017,-44.26708 45.72933,-61.06892 32.1787,-24.23494 73.0109,-39.9927 128.14931,-49.45472 25.46686,-4.37024 99.09165,-4.27736 125.27762,0.15803 34.46597,5.83788 68.12423,18.54713 89.50465,33.79665 l 9.97263,7.11296 21.14894,-20.79105 c 11.63189,-11.43508 27.77847,-25.06364 35.88128,-30.28569 27.73413,-17.87396 61.90835,-31.35357 96.85134,-38.20184 21.80241,-4.27292 76.41757,-4.25878 100.98917,0.0262 61.4445,10.71502 120.1757,44.11695 147.5628,83.92271 8.8263,12.82859 20.1919,37.0291 21.6625,46.12532 0.934,5.77696 1.9986,7.33944 4.4745,6.56686 11.743,-3.66435 47.4018,-9.61916 69.3222,-11.57642 93.0637,-8.30958 176.1541,29.31652 206.9559,93.71656 11.3602,23.75152 14.0323,35.60721 14.0491,62.33195 0.01,16.67804 -1.1524,26.66883 -4.7489,40.80065 -2.6913,10.57537 -3.9948,19.40366 -2.997,20.29928 0.9711,0.8717 9.4456,4.08086 18.8323,7.13145 44.6466,14.5098 81.3342,42.2917 97.7376,74.01225 21.8378,42.22976 20.6527,94.59421 -3.405,150.45606 -12.1469,28.20496 -27.0027,50.2209 -49.4306,73.25459 l -20.3528,20.9028 2.6724,10.1307 c 1.4699,5.5719 3.7546,18.7284 5.0773,29.2366 12.3242,97.9116 -44.936,170.2011 -153.3042,193.5426 -17.002,3.662 -26.6108,4.3994 -55.6849,4.273 -23.6845,-0.103 -39.3911,-1.1386 -48.1882,-3.1774 -7.1781,-1.6637 -13.057,-2.8948 -13.0643,-2.7359 -0.01,0.159 -3.4987,7.5172 -7.7586,16.3517 -25.4818,52.8466 -59.933,81.7039 -116.7144,97.7637 -19.2059,5.4321 -75.1554,6.8643 -98.3843,2.5183 z m 79.6351,-27.8169 c 55.6398,-10.6836 95.6682,-46.1786 114.0924,-101.1711 3.3291,-9.9367 6.0529,-19.5146 6.0529,-21.2843 0,-4.12 1.7563,-4.047 13.4786,0.5597 39.0347,15.3404 102.5883,15.0735 148.7428,-0.6247 52.4581,-17.8422 87.1176,-52.7682 97.9732,-98.7268 4.8273,-20.4371 2.8466,-63.5221 -4.0819,-88.7902 -2.8228,-10.2946 -5.1323,-19.8791 -5.1323,-21.299 0,-1.4198 5.3136,-5.8612 11.8082,-9.8699 39.7534,-24.53718 76.5841,-92.72307 79.881,-147.88625 4.2382,-70.91382 -40.4463,-116.97706 -128.0723,-132.02393 l -19.3165,-3.31696 6.5623,-13.14523 c 14.6751,-29.39677 20.4819,-65.06157 15.13,-92.92756 -9.4627,-49.27004 -53.1241,-88.49689 -112.5162,-101.08832 -21.4263,-4.54249 -84.0284,-3.80671 -109.1611,1.28301 -17.2846,3.50035 -54.8613,13.50597 -64.2431,17.10611 -2.199,0.84382 -2.9909,-2.82072 -3.8066,-17.61474 -0.6327,-11.47725 -2.6552,-23.23971 -5.245,-30.50484 -19.9404,-55.93748 -88.7801,-96.79005 -172.98151,-102.65502 -53.07516,-3.69691 -113.8182,13.42656 -152.86719,43.09328 -19.16746,14.56211 -43.4791,41.15814 -53.92824,58.99549 -4.96259,8.47145 -9.53224,15.40264 -10.15477,15.40264 -0.62255,0 -2.82182,-3.84 -4.88729,-8.53333 -8.57927,-19.49455 -37.70012,-40.52645 -68.29584,-49.3252 -60.39502,-17.36846 -143.709,-14.96885 -203.17045,5.85171 -65.94448,23.09061 -98.82743,59.32426 -96.68347,106.5353 0.81982,18.05282 2.37887,17.27249 -17.70769,8.86302 -40.85204,-17.10318 -95.45937,-14.47174 -142.52305,6.86795 -48.16872,21.84073 -87.55613,66.25212 -97.97936,110.47689 -3.90403,16.56444 -3.93792,45.47493 -0.0725,61.87138 3.47773,14.75203 17.80638,44.32456 29.15565,60.17364 l 7.8764,10.99926 -16.18282,9.95898 c -46.26882,28.47409 -69.840865,72.45236 -67.54435,126.01726 2.20336,51.39206 30.25511,94.36676 77.1256,118.15466 12.75541,6.4737 42.03027,14.4195 58.87469,15.9798 l 15.05883,1.3949 -1.00393,8.0314 c -0.55215,4.4173 -0.97551,15.2596 -0.94079,24.0941 0.17318,44.0628 28.05559,84.0519 74.22707,106.4568 53.36238,25.8944 122.78537,26.879 206.32379,2.9263 11.88123,-3.4067 22.4977,-5.6406 23.59216,-4.9642 1.09445,0.6765 1.98993,2.8055 1.98993,4.7313 0,6.9646 15.7243,35.7587 27.85804,51.0133 21.11155,26.5415 56.19531,50.9974 88.08944,61.4046 49.56947,16.1747 99.44274,6.2959 144.93304,-28.7081 15.38297,-11.8369 43.60547,-41.8123 57.64863,-61.2291 l 11.55403,-15.9753 7.13096,13.001 c 10.44885,19.05 21.18614,31.7124 39.25644,46.2948 44.93049,36.258 100.37625,56.316 156.93705,56.7733 12.3264,0.1 29.0417,-1.0918 37.1451,-2.6478 z"
     id="path833"
     transform="scale(0.75000002)" />
  <path
     style="fill:#02122c;stroke-width:2.00784"
     d="m 1038.0549,1382.6374 c -53.40568,-11.7119 -101.5914,-36.2438 -136.04987,-69.2645 l -16.58317,-15.8912 -4.49757,3.8081 c -2.47367,2.0945 -12.82966,11.6563 -23.0133,21.2484 -41.20656,38.8128 -83.00522,58.4746 -130.06785,61.1828 -44.51202,2.5615 -90.1119,-12.4245 -129.50589,-42.561 -16.23959,-12.4233 -42.9069,-41.0077 -53.42222,-57.2627 -5.0535,-7.8119 -10.2918,-14.627 -11.64069,-15.1446 -1.34889,-0.5176 -14.59332,1.5754 -29.43207,4.6511 -25.76464,5.3404 -29.46588,5.5896 -82.19521,5.5335 -54.46572,-0.058 -55.46112,-0.1339 -73.28627,-5.5898 -44.83765,-13.7239 -78.53964,-35.6286 -101.31854,-65.8523 -14.97838,-19.8738 -23.36661,-40.2679 -27.46818,-66.7828 l -3.24566,-20.9819 -13.29362,-3.3325 c -44.09338,-11.0535 -89.47323,-43.1854 -109.225887,-77.3392 -9.082752,-15.7047 -18.959712,-40.6769 -21.604637,-54.62351 -3.028429,-15.96886 -2.350675,-52.58194 1.23213,-66.56117 7.607124,-29.6811 28.157204,-62.64982 55.830964,-89.57024 6.20491,-6.036 11.28166,-12.05429 11.28166,-13.37398 0,-1.3197 -4.05118,-10.83762 -9.00262,-21.15094 -13.24667,-27.59142 -15.8568,-39.66856 -15.98586,-73.9672 -0.10055,-26.71909 0.34683,-30.44217 5.43916,-45.26481 11.06708,-32.2139 34.35068,-64.22016 64.15734,-88.19246 19.48889,-15.67413 56.12285,-34.54033 82.89002,-42.6877 17.26852,-5.25618 20.07213,-5.50996 63.1649,-5.71761 l 45.09429,-0.21729 5.45003,-13.29802 c 19.63508,-47.90948 65.26688,-80.23655 139.73688,-98.99418 45.08048,-11.35494 117.69145,-13.81448 162.02901,-5.48839 31.39021,5.89474 63.41738,18.38326 84.8396,33.08196 4.61621,3.1674 8.93036,5.7589 9.58697,5.7589 0.6566,0 11.91868,-10.16471 25.0268,-22.58824 33.71916,-31.95813 60.61502,-47.13772 107.51707,-60.68094 38.65901,-11.16299 101.55809,-11.2423 144.00759,-0.18157 48.4296,12.61894 94.7858,40.21352 119.2029,70.95829 9.9691,12.55252 23.3593,38.5462 26.9779,52.37083 2.2245,8.49844 2.4806,8.71541 8.6801,7.35418 44.9439,-9.86848 96.1379,-13.51533 128.346,-9.14285 70.1518,9.5236 124.438,46.01383 147.9471,99.44755 11.0947,25.21717 13.1245,56.90095 5.9341,92.62729 -2.3931,11.8903 -3.4913,21.86591 -2.5098,22.79817 0.9598,0.91162 11.6838,5.37506 23.8313,9.91871 29.3536,10.97944 50.67,24.01938 69.1656,42.31073 16.7783,16.59302 25.1773,30.58315 32.5461,54.21177 6.8293,21.89872 6.4772,61.15165 -0.7924,88.34509 -11.4124,42.69068 -31.1063,77.13449 -63.2526,110.62633 l -18.9467,19.7399 3.4593,14.6286 c 5.2712,22.2905 6.2822,67.5308 1.9489,87.2097 -13.9889,63.5285 -63.1731,108.3066 -141.1438,128.4995 -30.6331,7.9334 -95.7491,8.7544 -122.1534,1.5402 -3.6447,-0.9958 -5.1209,0.6964 -10.3434,11.8567 -20.9162,44.6968 -51.2816,74.9197 -92.8249,92.3894 -24.6222,10.354 -32.664,11.694 -75.2941,12.546 -33.8227,0.6761 -42.8489,0.2123 -57.2235,-2.9401 z m 101.3961,-27.1361 c 6.6259,-1.8516 19.727,-7.1306 29.1137,-11.7312 13.8217,-6.7742 20.5231,-11.8186 35.2454,-26.5301 15.2927,-15.2816 19.6685,-21.1937 27.5631,-37.24 5.1615,-10.491 10.9699,-25.1733 12.9075,-32.6275 3.8806,-14.9288 5.0898,-15.6592 17.4067,-10.5128 17.1677,7.1731 35.8499,9.7504 70.5165,9.7282 27.4111,-0.018 37.7157,-0.8476 52.3232,-4.2146 64.9984,-14.9825 109.1296,-52.086 122.4164,-102.9223 4.6678,-17.8595 3.0727,-67.7767 -2.9394,-91.986 -2.2799,-9.1806 -4.1435,-18.2159 -4.1414,-20.0785 0,-1.8626 4.5751,-6.5021 10.1621,-10.3101 14.4214,-9.8293 35.5882,-32.79747 46.794,-50.77646 27.0413,-43.38595 39.3051,-97.51646 30.5461,-134.82544 -11.5875,-49.35738 -53.3436,-82.10853 -120.6355,-94.61986 -9.9388,-1.84788 -19.1612,-3.68466 -20.4942,-4.08169 -1.6441,-0.48975 -0.1871,-5.56241 4.5309,-15.77373 11.0419,-23.89892 15.5138,-46.23549 14.5109,-72.48157 -1.006,-26.32815 -5.2391,-39.7713 -18.7759,-59.62706 -19.5107,-28.6182 -52.4333,-49.61981 -92.5052,-59.00993 -11.3281,-2.65454 -21.924,-3.04285 -59.941,-2.19669 -25.3992,0.56533 -50.698,2.10151 -56.2196,3.41374 -8.3939,1.99486 -45.8486,12.03806 -57.5733,15.43788 -2.7177,0.78805 -3.5814,-0.8892 -4.509,-8.75689 -3.4654,-29.38924 -5.6035,-38.0593 -12.7309,-51.62268 -22.4943,-42.80677 -74.0564,-74.67219 -138.7154,-85.72619 -63.22691,-10.80918 -130.4098,3.22924 -178.01122,37.19691 -16.79718,11.98621 -46.95231,44.05061 -57.48843,61.12829 -4.818,7.80935 -9.30042,14.20656 -9.96094,14.21601 -0.66051,0.009 -2.85369,-3.64795 -4.87372,-8.12756 -8.35522,-18.52857 -42.44165,-41.62748 -73.39093,-49.73386 -28.59309,-7.48924 -45.93306,-9.32308 -87.18538,-9.22056 -43.15973,0.10726 -64.83864,2.83166 -97.38039,12.23783 -35.1321,10.1549 -60.80466,23.67171 -80.7817,42.5322 -21.36238,20.16841 -29.64968,38.93436 -29.64968,67.13951 0,14.25701 -0.3695,15.81608 -3.51372,14.82537 -1.93255,-0.60892 -11.64549,-4.0246 -21.58431,-7.59041 -16.12943,-5.78685 -21.00168,-6.58237 -45.3564,-7.40553 -30.98662,-1.04732 -49.20496,1.74532 -77.0017,11.80335 -42.05647,15.21782 -80.999,49.41215 -100.59955,88.33365 -9.78666,19.43371 -12.96392,34.13837 -12.96392,59.99823 0,18.64559 0.85407,24.9906 5.04395,37.47201 6.0463,18.01164 12.52892,31.18554 24.43628,49.65918 4.88537,7.57941 8.60853,13.96273 8.27368,14.18515 -0.33485,0.22245 -8.39957,5.52189 -17.92159,11.77655 -28.38535,18.64523 -46.8005,41.75348 -57.39727,72.02496 -7.503653,21.43543 -8.666738,54.18548 -2.79585,78.72518 9.38468,39.22701 35.57039,72.42471 71.48237,90.62411 13.4348,6.8084 45.47879,15.6514 65.65155,18.1173 l 9.43195,1.153 -1.16238,16.4712 c -6.10142,86.4578 73.28588,147.0908 184.93951,141.2498 28.64909,-1.4988 50.35339,-5.0876 88.23625,-14.5898 15.3174,-3.8421 28.71477,-6.6973 29.77192,-6.3449 1.05715,0.3524 3.46612,5.2016 5.35327,10.7761 7.77212,22.9582 31.17574,53.8227 55.14513,72.7251 61.83731,48.765 130.32428,53.2328 192.30214,12.545 17.08702,-11.2175 56.05054,-50.2628 70.83644,-70.9852 l 9.72146,-13.6246 8.75915,14.9633 c 11.53936,19.7127 26.74174,35.836 48.3982,51.33 31.51444,22.5469 68.04133,38.1035 106.02713,45.1564 21.576,4.006 73.471,3.0458 90.353,-1.6718 z"
     id="path835"
     transform="scale(0.75000002)" />
</svg>
